<mxfile host="app.diagrams.net" agent="Mozilla/5.0 (Macintosh; Intel Mac OS X 10_15_7) AppleWebKit/605.1.15 (KHTML, like Gecko) Version/17.6 Safari/605.1.15" version="24.7.14">
  <diagram name="Page-1" id="jlSnAIeV1rwfVJv_ymzW">
    <mxGraphModel dx="954" dy="647" grid="1" gridSize="10" guides="1" tooltips="1" connect="1" arrows="1" fold="1" page="1" pageScale="1" pageWidth="850" pageHeight="1100" math="0" shadow="0">
      <root>
        <mxCell id="0" />
        <mxCell id="1" parent="0" />
        <mxCell id="0ToxL2YcX02NSYSCttNK-2" value="" style="rounded=1;absoluteArcSize=1;html=1;arcSize=10;fillColor=#dae8fc;strokeColor=#6c8ebf;fontFamily=Verdana;" parent="1" vertex="1">
          <mxGeometry x="281.25" y="330" width="350" height="210" as="geometry" />
        </mxCell>
        <mxCell id="0ToxL2YcX02NSYSCttNK-3" value="&lt;b&gt;Physics&lt;/b&gt;" style="html=1;shape=mxgraph.er.anchor;whiteSpace=wrap;fillColor=#f8cecc;strokeColor=#b85450;fontFamily=Verdana;" parent="0ToxL2YcX02NSYSCttNK-2" vertex="1">
          <mxGeometry width="350" height="36.52173913043478" as="geometry" />
        </mxCell>
        <mxCell id="0ToxL2YcX02NSYSCttNK-9" value="Car Components" style="rounded=1;absoluteArcSize=1;html=1;arcSize=10;whiteSpace=wrap;points=[];strokeColor=inherit;fillColor=inherit;fontFamily=Verdana;" parent="0ToxL2YcX02NSYSCttNK-2" vertex="1">
          <mxGeometry x="10" y="36.52173913043478" width="320" height="66.87130434782608" as="geometry" />
        </mxCell>
        <mxCell id="0ToxL2YcX02NSYSCttNK-14" style="edgeStyle=orthogonalEdgeStyle;rounded=0;orthogonalLoop=1;jettySize=auto;html=1;fontFamily=Verdana;" parent="0ToxL2YcX02NSYSCttNK-2" source="0ToxL2YcX02NSYSCttNK-10" target="0ToxL2YcX02NSYSCttNK-9" edge="1">
          <mxGeometry relative="1" as="geometry">
            <Array as="points">
              <mxPoint x="85" y="118.69565217391303" />
              <mxPoint x="130" y="118.69565217391303" />
            </Array>
          </mxGeometry>
        </mxCell>
        <mxCell id="0ToxL2YcX02NSYSCttNK-10" value="Physics Models" style="rounded=1;absoluteArcSize=1;html=1;arcSize=10;whiteSpace=wrap;points=[];strokeColor=inherit;fillColor=inherit;fontFamily=Verdana;" parent="0ToxL2YcX02NSYSCttNK-2" vertex="1">
          <mxGeometry x="10" y="127.82608695652173" width="150" height="66.87130434782608" as="geometry" />
        </mxCell>
        <mxCell id="0ToxL2YcX02NSYSCttNK-15" style="edgeStyle=orthogonalEdgeStyle;rounded=0;orthogonalLoop=1;jettySize=auto;html=1;fontFamily=Verdana;" parent="0ToxL2YcX02NSYSCttNK-2" source="0ToxL2YcX02NSYSCttNK-12" target="0ToxL2YcX02NSYSCttNK-9" edge="1">
          <mxGeometry relative="1" as="geometry">
            <Array as="points">
              <mxPoint x="255" y="118.69565217391303" />
              <mxPoint x="210" y="118.69565217391303" />
            </Array>
          </mxGeometry>
        </mxCell>
        <mxCell id="0ToxL2YcX02NSYSCttNK-12" value="Environment Data" style="rounded=1;absoluteArcSize=1;html=1;arcSize=10;whiteSpace=wrap;points=[];strokeColor=inherit;fillColor=inherit;fontFamily=Verdana;" parent="0ToxL2YcX02NSYSCttNK-2" vertex="1">
          <mxGeometry x="180" y="127.82608695652173" width="150" height="66.87130434782608" as="geometry" />
        </mxCell>
        <mxCell id="0ToxL2YcX02NSYSCttNK-17" value="" style="rounded=1;absoluteArcSize=1;html=1;arcSize=10;fillColor=#dae8fc;strokeColor=#6c8ebf;fontFamily=Verdana;" parent="1" vertex="1">
          <mxGeometry x="80" y="90" width="320" height="200" as="geometry" />
        </mxCell>
        <mxCell id="0ToxL2YcX02NSYSCttNK-18" value="&lt;b&gt;Simulation&lt;/b&gt;" style="html=1;shape=mxgraph.er.anchor;whiteSpace=wrap;fillColor=#f8cecc;strokeColor=#b85450;fontFamily=Verdana;" parent="0ToxL2YcX02NSYSCttNK-17" vertex="1">
          <mxGeometry width="320" height="34.78260869565217" as="geometry" />
        </mxCell>
        <mxCell id="0ToxL2YcX02NSYSCttNK-56" style="edgeStyle=orthogonalEdgeStyle;rounded=0;orthogonalLoop=1;jettySize=auto;html=1;" parent="0ToxL2YcX02NSYSCttNK-17" source="0ToxL2YcX02NSYSCttNK-19" target="0ToxL2YcX02NSYSCttNK-31" edge="1">
          <mxGeometry relative="1" as="geometry">
            <Array as="points">
              <mxPoint x="201.14285714285717" y="110" />
              <mxPoint x="258.74285714285713" y="110" />
            </Array>
          </mxGeometry>
        </mxCell>
        <mxCell id="0ToxL2YcX02NSYSCttNK-19" value="Genetic Optimization Algorithm" style="rounded=1;absoluteArcSize=1;html=1;arcSize=10;whiteSpace=wrap;points=[];strokeColor=inherit;fillColor=inherit;fontFamily=Verdana;" parent="0ToxL2YcX02NSYSCttNK-17" vertex="1">
          <mxGeometry x="13.718857142857145" y="34.78260869565217" width="292.5714285714285" height="63.68695652173913" as="geometry" />
        </mxCell>
        <mxCell id="0ToxL2YcX02NSYSCttNK-20" style="edgeStyle=orthogonalEdgeStyle;rounded=0;orthogonalLoop=1;jettySize=auto;html=1;fontFamily=Verdana;" parent="0ToxL2YcX02NSYSCttNK-17" source="0ToxL2YcX02NSYSCttNK-21" target="0ToxL2YcX02NSYSCttNK-19" edge="1">
          <mxGeometry relative="1" as="geometry">
            <Array as="points">
              <mxPoint x="56.800000000000004" y="113" />
              <mxPoint x="112" y="113" />
            </Array>
          </mxGeometry>
        </mxCell>
        <mxCell id="0ToxL2YcX02NSYSCttNK-21" value="Constraints" style="rounded=1;absoluteArcSize=1;html=1;arcSize=10;whiteSpace=wrap;points=[];strokeColor=inherit;fillColor=inherit;fontFamily=Verdana;" parent="0ToxL2YcX02NSYSCttNK-17" vertex="1">
          <mxGeometry x="9.143999999999998" y="121.74" width="94.856" height="63.69" as="geometry" />
        </mxCell>
        <mxCell id="0ToxL2YcX02NSYSCttNK-30" value="Results" style="rounded=1;absoluteArcSize=1;html=1;arcSize=10;whiteSpace=wrap;points=[];strokeColor=inherit;fillColor=inherit;fontFamily=Verdana;" parent="0ToxL2YcX02NSYSCttNK-17" vertex="1">
          <mxGeometry x="112.576" y="121.74" width="87.424" height="63.69" as="geometry" />
        </mxCell>
        <mxCell id="0ToxL2YcX02NSYSCttNK-31" value="Output" style="rounded=1;absoluteArcSize=1;html=1;arcSize=10;whiteSpace=wrap;points=[];strokeColor=inherit;fillColor=inherit;fontFamily=Verdana;" parent="0ToxL2YcX02NSYSCttNK-17" vertex="1">
          <mxGeometry x="211.432" y="121.74000000000001" width="94.856" height="63.69" as="geometry" />
        </mxCell>
        <mxCell id="0ToxL2YcX02NSYSCttNK-37" style="edgeStyle=orthogonalEdgeStyle;rounded=0;orthogonalLoop=1;jettySize=auto;html=1;entryX=0.487;entryY=1.008;entryDx=0;entryDy=0;entryPerimeter=0;fontFamily=Verdana;" parent="0ToxL2YcX02NSYSCttNK-17" source="0ToxL2YcX02NSYSCttNK-30" target="0ToxL2YcX02NSYSCttNK-19" edge="1">
          <mxGeometry relative="1" as="geometry" />
        </mxCell>
        <mxCell id="0ToxL2YcX02NSYSCttNK-40" value="" style="rounded=1;absoluteArcSize=1;html=1;arcSize=10;fillColor=#dae8fc;strokeColor=#6c8ebf;fontFamily=Verdana;" parent="1" vertex="1">
          <mxGeometry x="500" y="90" width="350" height="200" as="geometry" />
        </mxCell>
        <mxCell id="0ToxL2YcX02NSYSCttNK-41" value="&lt;b&gt;Race Strategy&lt;/b&gt;" style="html=1;shape=mxgraph.er.anchor;whiteSpace=wrap;fillColor=#f8cecc;strokeColor=#b85450;fontFamily=Verdana;" parent="0ToxL2YcX02NSYSCttNK-40" vertex="1">
          <mxGeometry width="350" height="34.78260869565217" as="geometry" />
        </mxCell>
        <mxCell id="0ToxL2YcX02NSYSCttNK-42" value="Command Line Interface" style="rounded=1;absoluteArcSize=1;html=1;arcSize=10;whiteSpace=wrap;points=[];strokeColor=inherit;fillColor=inherit;fontFamily=Verdana;" parent="0ToxL2YcX02NSYSCttNK-40" vertex="1">
          <mxGeometry x="15.005" y="34.78260869565217" width="319.99999999999994" height="63.68695652173913" as="geometry" />
        </mxCell>
        <mxCell id="0ToxL2YcX02NSYSCttNK-43" style="edgeStyle=orthogonalEdgeStyle;rounded=0;orthogonalLoop=1;jettySize=auto;html=1;fontFamily=Verdana;" parent="0ToxL2YcX02NSYSCttNK-40" source="0ToxL2YcX02NSYSCttNK-44" target="0ToxL2YcX02NSYSCttNK-42" edge="1">
          <mxGeometry relative="1" as="geometry">
            <Array as="points">
              <mxPoint x="62.125" y="113" />
              <mxPoint x="122.5" y="113" />
            </Array>
          </mxGeometry>
        </mxCell>
        <mxCell id="0ToxL2YcX02NSYSCttNK-44" value="Optimization Results" style="rounded=1;absoluteArcSize=1;html=1;arcSize=10;whiteSpace=wrap;points=[];strokeColor=inherit;fillColor=inherit;fontFamily=Verdana;" parent="0ToxL2YcX02NSYSCttNK-40" vertex="1">
          <mxGeometry x="10.001249999999999" y="121.74" width="103.74875" height="63.69" as="geometry" />
        </mxCell>
        <mxCell id="0ToxL2YcX02NSYSCttNK-45" value="Simulation Results" style="rounded=1;absoluteArcSize=1;html=1;arcSize=10;whiteSpace=wrap;points=[];strokeColor=inherit;fillColor=inherit;fontFamily=Verdana;" parent="0ToxL2YcX02NSYSCttNK-40" vertex="1">
          <mxGeometry x="123.13" y="121.74" width="95.62" height="63.69" as="geometry" />
        </mxCell>
        <mxCell id="0ToxL2YcX02NSYSCttNK-46" value="Telemetry Data" style="rounded=1;absoluteArcSize=1;html=1;arcSize=10;whiteSpace=wrap;points=[];strokeColor=inherit;fillColor=inherit;fontFamily=Verdana;" parent="0ToxL2YcX02NSYSCttNK-40" vertex="1">
          <mxGeometry x="231.25374999999997" y="121.74000000000001" width="103.74875" height="63.69" as="geometry" />
        </mxCell>
        <mxCell id="0ToxL2YcX02NSYSCttNK-48" style="edgeStyle=orthogonalEdgeStyle;rounded=0;orthogonalLoop=1;jettySize=auto;html=1;entryX=0.487;entryY=1.008;entryDx=0;entryDy=0;entryPerimeter=0;fontFamily=Verdana;" parent="0ToxL2YcX02NSYSCttNK-40" source="0ToxL2YcX02NSYSCttNK-45" target="0ToxL2YcX02NSYSCttNK-42" edge="1">
          <mxGeometry relative="1" as="geometry" />
        </mxCell>
        <mxCell id="0ToxL2YcX02NSYSCttNK-50" style="edgeStyle=orthogonalEdgeStyle;rounded=0;orthogonalLoop=1;jettySize=auto;html=1;fontFamily=Verdana;" parent="0ToxL2YcX02NSYSCttNK-40" source="0ToxL2YcX02NSYSCttNK-46" edge="1">
          <mxGeometry relative="1" as="geometry">
            <Array as="points">
              <mxPoint x="280" y="113" />
              <mxPoint x="220" y="113" />
              <mxPoint x="220" y="99" />
            </Array>
            <mxPoint x="240" y="122.47" as="sourcePoint" />
            <mxPoint x="220" y="100" as="targetPoint" />
          </mxGeometry>
        </mxCell>
        <mxCell id="0ToxL2YcX02NSYSCttNK-52" style="edgeStyle=orthogonalEdgeStyle;rounded=0;orthogonalLoop=1;jettySize=auto;html=1;fontFamily=Verdana;" parent="1" source="0ToxL2YcX02NSYSCttNK-31" target="0ToxL2YcX02NSYSCttNK-44" edge="1">
          <mxGeometry relative="1" as="geometry" />
        </mxCell>
        <mxCell id="0ToxL2YcX02NSYSCttNK-53" style="edgeStyle=orthogonalEdgeStyle;rounded=0;orthogonalLoop=1;jettySize=auto;html=1;entryX=0.5;entryY=0;entryDx=0;entryDy=0;fontFamily=Verdana;" parent="1" source="0ToxL2YcX02NSYSCttNK-31" target="0ToxL2YcX02NSYSCttNK-2" edge="1">
          <mxGeometry relative="1" as="geometry" />
        </mxCell>
        <mxCell id="0ToxL2YcX02NSYSCttNK-54" style="edgeStyle=orthogonalEdgeStyle;rounded=0;orthogonalLoop=1;jettySize=auto;html=1;entryX=0.507;entryY=0.988;entryDx=0;entryDy=0;entryPerimeter=0;exitX=1;exitY=0.5;exitDx=0;exitDy=0;fontFamily=Verdana;" parent="1" source="0ToxL2YcX02NSYSCttNK-2" target="0ToxL2YcX02NSYSCttNK-45" edge="1">
          <mxGeometry relative="1" as="geometry" />
        </mxCell>
        <mxCell id="0ToxL2YcX02NSYSCttNK-55" style="edgeStyle=orthogonalEdgeStyle;rounded=0;orthogonalLoop=1;jettySize=auto;html=1;entryX=0.503;entryY=1.006;entryDx=0;entryDy=0;entryPerimeter=0;" parent="1" source="0ToxL2YcX02NSYSCttNK-2" target="0ToxL2YcX02NSYSCttNK-30" edge="1">
          <mxGeometry relative="1" as="geometry" />
        </mxCell>
      </root>
    </mxGraphModel>
  </diagram>
</mxfile>
